<svg xmlns="http://www.w3.org/2000/svg" version="1.1" xmlns:xlink="http://www.w3.org/1999/xlink" xmlns:svgjs="http://svgjs.dev/svgjs" width="1440" height="552" preserveAspectRatio="none" viewBox="0 0 1440 552"><g mask="url(&quot;#SvgjsMask1033&quot;)" fill="none"><rect width="1440" height="552" x="0" y="0" fill="rgba(230, 200, 255, 1)"></rect><path d="M414 134.46C409.25 134.46 404.14 135.57 404.14 138C404.14 140.79 409.53 144.9 414 144.9C417.34 144.9 419.75 140.98 419.75 138C419.75 135.76 417.06 134.46 414 134.46" stroke="rgba(117, 51, 194, 0.58)" stroke-width="2"></path><path d="M1242 98.05C1220.66 98.05 1198.63 116.09 1198.63 138C1198.63 164.7 1220.79 195.28 1242 195.28C1262.71 195.28 1282.48 164.85 1282.48 138C1282.48 116.23 1262.58 98.05 1242 98.05" stroke="rgba(117, 51, 194, 0.58)" stroke-width="2"></path><path d="M1518 122.48C1516.28 134.31 1497.97 129.4 1497.97 138C1497.97 148.05 1515.97 145.78 1518 159.79C1525.98 214.78 1518 217.89 1518 276C1518 324 1530.25 328.83 1518 372C1510.67 397.83 1491.39 388.7 1478.84 414C1446.75 478.7 1465.82 500.19 1428.71 552C1416.4 569.19 1404.36 552 1380 552C1311 552 1311 552 1242 552C1173 552 1173 552 1104 552C1035 552 1035 552 966 552C913.56 552 869.95 580.26 861.12 552C848.39 511.26 931.83 474.73 922.88 414C915.27 362.36 882.78 357.91 828 327.26C766.34 292.75 738.26 261.65 690 283.67C643.19 305.02 637.87 357.62 637.87 414C637.87 438.42 666.7 425.97 690 445.28C749.94 494.97 804.34 521.17 804.34 552C804.34 574.53 747.17 552 690 552C621 552 621 552 552 552C483 552 483 552 414 552C345 552 345 552 276 552C207 552 207 552 138 552C69 552 34.5 586.5 0 552C-34.5 517.5 0 483 0 414C0 345 0 345 0 276C0 207 0 207 0 138C0 69 -34.5 34.5 0 0C34.5 -34.5 69 0 138 0C207 0 207 0 276 0C345 0 345 0 414 0C483 0 483 0 552 0C621 0 621 0 690 0C759 0 759 0 828 0C897 0 897 0 966 0C1035 0 1035 0 1104 0C1173 0 1173 0 1242 0C1311 0 1311 0 1380 0C1449 0 1481.44 -32.44 1518 0C1550.44 28.8 1526.3 65.31 1518 122.48" stroke="rgba(117, 51, 194, 0.58)" stroke-width="2"></path><path d="M1104 234C1056.65 234 1004.07 248.94 1004.07 276C1004.07 307.09 1059.42 350.31 1104 350.31C1137.25 350.31 1159.73 309.21 1159.73 276C1159.73 251.05 1134.48 234 1104 234" stroke="rgba(117, 51, 194, 0.58)" stroke-width="2"></path><path d="M138 120.75C129.14 123.69 129.1 130.03 129.1 138C129.1 143.26 131.89 145.6 138 147.2C205.34 164.85 215.07 145.57 276 176.51C341.88 209.97 366.97 214 391.62 276C414.18 332.75 363.95 347.49 370.42 414C375.14 462.49 384.24 506 414 506C452.03 506 499.41 467.06 506 414C513.69 352.06 431.62 338.98 442.55 276C454.62 206.5 504.37 149.04 552 149.04C592.86 149.04 617.28 211.12 619.53 276C621.88 343.6 543.61 360.25 561.2 414C578.84 467.89 629.13 447.95 690 491.28C726.06 516.95 755.06 534.46 755.06 552C755.06 564.82 722.53 552 690 552C621 552 621 552 552 552C483 552 483 552 414 552C345 552 345 552 276 552C207 552 207 552 138 552C69 552 34.5 586.5 0 552C-34.5 517.5 0 483 0 414C0 345 0 345 0 276C0 207 0 207 0 138C0 69 -34.5 34.5 0 0C34.5 -34.5 69 0 138 0C207 0 207 0 276 0C345 0 345 0 414 0C448.5 0 483 -10.45 483 0C483 12.55 451.72 29.73 414 46C348.22 74.38 345.75 70.4 276 89.29C207.75 107.78 202.59 99.33 138 120.75" stroke="rgba(117, 51, 194, 0.58)" stroke-width="2"></path><path d="M828 59.14C756.24 40.48 690 15.41 690 0C690 -14.16 759 0 828 0C897 0 897 0 966 0C1035 0 1035 0 1104 0C1173 0 1173 0 1242 0C1287.47 0 1332.95 -12.22 1332.95 0C1332.95 14.11 1283.76 21.28 1242 52.66C1191.95 90.28 1194.95 94.59 1149.34 138C1125.95 160.26 1128.92 184 1104 184C1072.48 184 1068.07 163.7 1036.47 138C999.07 107.58 1008.85 87.97 966 71.76C904.61 48.54 894.24 76.36 828 59.14" stroke="rgba(117, 51, 194, 0.58)" stroke-width="2"></path><path d="M1328.48 138C1356.68 94.63 1352.76 92.13 1380 48.14C1395.49 23.13 1388.99 8.7 1413.93 0C1457.99 -15.37 1488.48 -22.51 1518 0C1540.51 17.16 1535.15 48.08 1518 79.35C1497.31 117.08 1442.32 105.49 1442.32 138C1442.32 175.97 1492.74 174.26 1518 220.32C1530.58 243.26 1518 248.16 1518 276C1518 299 1529.48 303.52 1518 322C1486.59 372.52 1469.39 363.84 1432.22 414C1400.39 456.96 1410.48 464.41 1380 508.24C1362.49 533.41 1363.59 543.33 1336.24 552C1294.59 565.21 1289.12 552 1242 552C1173 552 1173 552 1104 552C1035 552 1035 552 966 552C948.06 552 930.12 562.51 930.12 552C930.12 530.48 937.1 507.22 966 487.93C1024.04 449.19 1035.89 463.92 1104 435.95C1125.89 426.96 1132.02 432.31 1146 414C1193.06 352.34 1183.97 343.39 1226.08 276C1231.97 266.58 1235.37 269.32 1242 260.38C1286.57 200.32 1287.68 200.75 1328.48 138" stroke="rgba(117, 51, 194, 0.58)" stroke-width="2"></path><path d="M0 105.53C4.74 105.53 5.63 124.18 17.81 138C74.63 202.51 66.24 229.2 138 262.2C195.34 288.57 209.93 251.06 276 256.74C290.12 257.96 298.38 264.06 298.38 276C298.38 296.69 297.41 319.37 276 322C217.22 329.22 202.41 282.72 138 295.71C64.41 310.56 42.24 383.71 0 377.68C-26.76 373.86 0 326.84 0 276C0 207 0 207 0 138C0 121.76 -4.16 105.53 0 105.53" stroke="rgba(117, 51, 194, 0.58)" stroke-width="2"></path><path d="M966 2.76C959.62 2.76 953.45 0.7 953.45 0C953.45 -0.68 959.72 0 966 0C989 0 1012 -0.69 1012 0C1012 0.69 988.89 2.76 966 2.76" stroke="rgba(117, 51, 194, 0.58)" stroke-width="2"></path><path d="M1242 7.26C1196.82 7.26 1150 1.82 1150 0C1150 -1.81 1196 0 1242 0C1248.28 0 1254.55 -1.68 1254.55 0C1254.55 1.95 1249.1 7.26 1242 7.26" stroke="rgba(117, 51, 194, 0.58)" stroke-width="2"></path><path d="M1374.48 138C1376.72 132.92 1377.03 128.37 1380 128.37C1383.13 128.37 1382.92 133.51 1386.68 138C1444.66 207.32 1503.74 207.13 1503.47 276C1503.2 345.13 1443.63 344.38 1385.59 414C1381.9 418.43 1384.87 424.1 1380 424.1C1364.83 424.1 1352.11 429.01 1345.5 414C1319.52 354.96 1307.81 342.88 1314.83 276C1322.3 204.88 1344.14 206.74 1374.48 138" stroke="rgba(117, 51, 194, 0.58)" stroke-width="2"></path><path d="M1518 36.23C1503.21 36.23 1470.49 10.09 1470.49 0C1470.49 -8.02 1504.52 -10.28 1518 0C1528.28 7.84 1526.97 36.23 1518 36.23" stroke="rgba(117, 51, 194, 0.58)" stroke-width="2"></path><path d="M0 529C59.17 514.21 71.53 510.11 138 517.5C175.03 521.61 207 542.89 207 552C207 560.14 172.5 552 138 552C69 552 59.14 561.86 0 552C-9.86 550.36 -9.83 531.46 0 529" stroke="rgba(117, 51, 194, 0.58)" stroke-width="2"></path><path d="M642 552C642 548.24 667.7 537.28 690 537.28C699.58 537.28 705.77 547.75 705.77 552C705.77 555.11 697.88 552 690 552C666 552 642 555.6 642 552" stroke="rgba(117, 51, 194, 0.58)" stroke-width="2"></path><path d="M1035 552C1035 541.98 1066.45 520.62 1104 514.36C1169.95 503.37 1183.25 502.57 1242 517.5C1257.3 521.39 1252.1 538.53 1252.1 552C1252.1 555.78 1247.05 552 1242 552C1173 552 1173 552 1104 552C1069.5 552 1035 560.8 1035 552" stroke="rgba(117, 51, 194, 0.58)" stroke-width="2"></path></g><defs><mask id="SvgjsMask1033"><rect width="1440" height="552" fill="#ffffff"></rect></mask></defs></svg>