<svg id="visual" viewBox="0 0 900 600" width="900" height="600" xmlns="http://www.w3.org/2000/svg" xmlns:xlink="http://www.w3.org/1999/xlink" version="1.1"><rect x="0" y="0" width="900" height="600" fill="#140021"></rect><path d="M0 363L129 363L129 313L257 313L257 314L386 314L386 293L514 293L514 350L643 350L643 289L771 289L771 368L900 368L900 294L900 601L900 601L771 601L771 601L643 601L643 601L514 601L514 601L386 601L386 601L257 601L257 601L129 601L129 601L0 601Z" fill="#b347fa"></path><path d="M0 352L129 352L129 356L257 356L257 460L386 460L386 362L514 362L514 451L643 451L643 346L771 346L771 382L900 382L900 394L900 601L900 601L771 601L771 601L643 601L643 601L514 601L514 601L386 601L386 601L257 601L257 601L129 601L129 601L0 601Z" fill="#822dbb"></path><path d="M0 517L129 517L129 479L257 479L257 533L386 533L386 510L514 510L514 443L643 443L643 446L771 446L771 492L900 492L900 486L900 601L900 601L771 601L771 601L643 601L643 601L514 601L514 601L386 601L386 601L257 601L257 601L129 601L129 601L0 601Z" fill="#551580"></path></svg>